<?xml version="1.0" encoding="utf-8"?>
<!-- Generator: Adobe Illustrator 24.0.1, SVG Export Plug-In . SVG Version: 6.00 Build 0)  -->
<svg version="1.2" baseProfile="tiny" id="icon" xmlns="http://www.w3.org/2000/svg" xmlns:xlink="http://www.w3.org/1999/xlink"
	 x="0px" y="0px" viewBox="0 0 32 32" xml:space="preserve">
<path d="M16,4.125C9.452,4.125,4.125,9.452,4.125,16S9.452,27.875,16,27.875c0.674,0,1.358-0.063,2.091-0.194
	c0.557-0.1,1.031-0.462,1.273-0.973s0.223-1.107-0.052-1.602l-0.096-0.18c-0.349-0.681-1.099-1.052-1.851-0.928
	c-0.499,0.085-0.945,0.126-1.366,0.126c-4.48,0-8.125-3.645-8.125-8.125c0-4.48,3.645-8.125,8.125-8.125
	c4.48,0,8.125,3.645,8.125,8.125c0,0.421-0.041,0.868-0.126,1.366c-0.128,0.753,0.248,1.502,0.928,1.851l0.18,0.096
	c0.495,0.274,1.091,0.294,1.602,0.052s0.873-0.717,0.973-1.273c0.131-0.732,0.194-1.417,0.194-2.091
	C27.875,9.452,22.548,4.125,16,4.125z"/>
</svg>
