<?xml version="1.0" encoding="utf-8"?>
<!-- Generator: Adobe Illustrator 24.0.1, SVG Export Plug-In . SVG Version: 6.00 Build 0)  -->
<svg version="1.2" baseProfile="tiny" id="icon" xmlns="http://www.w3.org/2000/svg" xmlns:xlink="http://www.w3.org/1999/xlink"
	 x="0px" y="0px" viewBox="0 0 32 32" xml:space="preserve">
<g>
	<path d="M12.631,8.757C13.646,8.281,14.771,8.005,15.963,8C15.976,8,15.988,8,16,8.001V10l7-6h-7c-2.317,0-4.475,0.672-6.311,1.815
		L12.631,8.757z"/>
	<path d="M22.925,12.016C23.628,13.232,24,14.61,24,16c0,1.205-0.277,2.344-0.757,3.37l2.942,2.942C27.328,20.476,28,18.318,28,16
		c0-2.103-0.563-4.182-1.63-6.014c-0.267-0.459-0.717-0.783-1.236-0.892c-0.522-0.109-1.062,0.009-1.491,0.322
		c-0.006,0.004-0.131,0.098-0.14,0.104C22.684,10.07,22.431,11.161,22.925,12.016z"/>
	<path d="M24.539,24.418c0.001-0.001,0.002-0.002,0.003-0.003l-2.827-2.827c-0.001,0.001-0.002,0.002-0.003,0.003L10.41,10.289
		c0.001-0.001,0.002-0.002,0.003-0.002L7.585,7.459C7.584,7.46,7.583,7.46,7.582,7.461L6.561,6.439
		c-0.586-0.586-1.535-0.586-2.121,0c-0.586,0.585-0.586,1.536,0,2.121L5.72,9.841C4.636,11.645,4,13.747,4,16
		c0,2.103,0.563,4.182,1.629,6.013c0.269,0.463,0.748,0.77,1.272,0.876c0.117,0.023,0.235,0.035,0.354,0.035
		c0.417,0,0.835-0.141,1.169-0.391l0.073-0.054c0.819-0.55,1.072-1.642,0.579-2.495C8.372,18.768,8,17.39,8,16
		c0-1.14,0.244-2.222,0.675-3.204l10.53,10.53c-0.972,0.427-2.042,0.669-3.168,0.674c-0.013-0.001-0.024-0.001-0.037-0.001V22l-7,6
		h7c2.253,0,4.356-0.636,6.159-1.72l1.281,1.281C23.732,27.854,24.116,28,24.5,28s0.768-0.146,1.061-0.439
		c0.586-0.586,0.586-1.535,0-2.121L24.539,24.418z"/>
</g>
</svg>
