<?xml version="1.0" encoding="utf-8"?>
<!-- Generator: Adobe Illustrator 24.0.1, SVG Export Plug-In . SVG Version: 6.00 Build 0)  -->
<svg version="1.2" baseProfile="tiny" id="icon" xmlns="http://www.w3.org/2000/svg" xmlns:xlink="http://www.w3.org/1999/xlink"
	 x="0px" y="0px" viewBox="0 0 32 32" xml:space="preserve">
<g>
	<path d="M9.076,19.984C8.372,18.768,8,17.39,8,16c0-4.399,3.569-7.98,7.963-8C15.976,8,15.988,8,16,8.001V10l7-6h-7
		C9.383,4,4,9.383,4,16c0,2.103,0.563,4.182,1.629,6.013c0.269,0.463,0.748,0.77,1.272,0.876c0.117,0.023,0.235,0.035,0.354,0.035
		c0.417,0,0.835-0.141,1.169-0.391l0.073-0.054C9.316,21.93,9.569,20.838,9.076,19.984z"/>
	<path d="M26.37,9.986c-0.267-0.459-0.717-0.783-1.236-0.892c-0.522-0.109-1.062,0.009-1.491,0.322
		c-0.006,0.004-0.131,0.098-0.14,0.104c-0.819,0.55-1.072,1.641-0.578,2.496C23.628,13.232,24,14.61,24,16
		c0,4.398-3.569,7.979-7.963,8c-0.013-0.001-0.024-0.001-0.037-0.001V22l-7,6h7c6.617,0,12-5.383,12-12
		C28,13.897,27.437,11.818,26.37,9.986z"/>
</g>
<path d="M15.5,11h2v10h-2v-6.25h-2V13.5C13.5,13.5,15.5,13.5,15.5,11"/>
</svg>
