<?xml version="1.0" encoding="utf-8"?>
<!-- Generator: Adobe Illustrator 24.0.1, SVG Export Plug-In . SVG Version: 6.00 Build 0)  -->
<svg version="1.2" baseProfile="tiny" id="icon" xmlns="http://www.w3.org/2000/svg" xmlns:xlink="http://www.w3.org/1999/xlink"
	 x="0px" y="0px" viewBox="0 0 32 32" xml:space="preserve">
<path d="M27.667,5H4.333C3.045,5,2,5.985,2,7.2v17.6C2,26.015,3.045,27,4.333,27h23.333C28.955,27,30,26.015,30,24.8V7.2
	C30,5.985,28.955,5,27.667,5z M4.917,16c0-0.608,0.522-1.1,1.167-1.1h8.75C15.478,14.9,16,15.392,16,16v1.1
	c0,0.607-0.522,1.1-1.167,1.1h-8.75c-0.644,0-1.167-0.493-1.167-1.1V16z M11.333,23.15c0,0.607-0.522,1.1-1.167,1.1H6.083
	c-0.644,0-1.167-0.493-1.167-1.1v-1.1c0-0.608,0.522-1.1,1.167-1.1h4.083c0.644,0,1.167,0.492,1.167,1.1V23.15z M27.083,23.15
	c0,0.607-0.522,1.1-1.167,1.1h-10.5c-0.644,0-1.167-0.493-1.167-1.1v-1.1c0-0.608,0.522-1.1,1.167-1.1h10.5
	c0.644,0,1.167,0.492,1.167,1.1V23.15z M27.083,17.1c0,0.607-0.522,1.1-1.167,1.1h-5.833c-0.644,0-1.167-0.493-1.167-1.1V16
	c0-0.608,0.522-1.1,1.167-1.1h5.833c0.644,0,1.167,0.492,1.167,1.1V17.1z"/>
</svg>
