<?xml version="1.0" encoding="utf-8"?>
<!-- Generator: Adobe Illustrator 24.0.1, SVG Export Plug-In . SVG Version: 6.00 Build 0)  -->
<svg version="1.2" baseProfile="tiny" id="icon" xmlns="http://www.w3.org/2000/svg" xmlns:xlink="http://www.w3.org/1999/xlink"
	 x="0px" y="0px" viewBox="0 0 32 32" xml:space="preserve">
<g>
	<path d="M27.5,7h-23C3.675,7,3,7.675,3,8.5V9c0,0.825,0.675,1.5,1.5,1.5h23c0.825,0,1.5-0.675,1.5-1.5V8.5
		C29,7.675,28.325,7,27.5,7z"/>
	<path d="M27.25,14.25H4.75C3.787,14.25,3,15.037,3,16c0,0.962,0.787,1.75,1.75,1.75h22.5c0.963,0,1.75-0.788,1.75-1.75
		C29,15.037,28.213,14.25,27.25,14.25z"/>
	<path d="M27.5,21.5h-23C3.675,21.5,3,22.175,3,23v0.5C3,24.325,3.675,25,4.5,25h23c0.825,0,1.5-0.675,1.5-1.5V23
		C29,22.175,28.325,21.5,27.5,21.5z"/>
</g>
</svg>
