<?xml version="1.0" encoding="utf-8"?>
<!-- Generator: Adobe Illustrator 24.0.1, SVG Export Plug-In . SVG Version: 6.00 Build 0)  -->
<svg version="1.2" baseProfile="tiny" id="icon" xmlns="http://www.w3.org/2000/svg" xmlns:xlink="http://www.w3.org/1999/xlink"
	 x="0px" y="0px" viewBox="0 0 32 32" xml:space="preserve">
<g>
	<path d="M21.25,10.997v2.799c0,0.31,0.225,0.593,0.576,0.724c0.135,0.05,0.279,0.075,0.424,0.075c0.229,0,0.457-0.063,0.641-0.185
		l6-3.998c0.228-0.152,0.359-0.377,0.359-0.614c0-0.237-0.132-0.462-0.359-0.614l-6-3.998c-0.299-0.198-0.714-0.241-1.064-0.11
		c-0.352,0.132-0.576,0.414-0.576,0.724v2.799h-2c-0.035,0-0.068,0.006-0.102,0.008c-0.051,0.003-0.102,0.005-0.152,0.012
		c-0.049,0.007-0.097,0.017-0.144,0.028c-0.046,0.01-0.091,0.02-0.136,0.034c-0.046,0.014-0.09,0.031-0.134,0.049
		c-0.043,0.017-0.086,0.034-0.127,0.055c-0.041,0.021-0.079,0.044-0.118,0.068c-0.038,0.024-0.076,0.047-0.112,0.074
		c-0.039,0.029-0.073,0.061-0.108,0.093c-0.022,0.02-0.047,0.037-0.067,0.058L6.5,21.393H4.25c-0.829,0-1.5,0.537-1.5,1.2
		s0.671,1.2,1.5,1.2h3c0.111,0,0.219-0.011,0.323-0.029c0.028-0.005,0.055-0.014,0.083-0.021c0.075-0.017,0.149-0.036,0.219-0.062
		c0.035-0.013,0.068-0.029,0.102-0.044c0.06-0.027,0.118-0.056,0.173-0.089c0.033-0.02,0.065-0.041,0.096-0.063
		c0.055-0.039,0.104-0.081,0.151-0.126c0.017-0.016,0.038-0.028,0.053-0.045L20,10.997H21.25z"/>
	<path d="M4.25,10.608H6.5l4.242,4.523l1.877-1.997L8.45,8.688C8.434,8.671,8.414,8.66,8.397,8.644
		C8.35,8.599,8.3,8.556,8.246,8.517C8.214,8.495,8.183,8.474,8.15,8.454C8.095,8.421,8.037,8.392,7.977,8.365
		C7.943,8.35,7.91,8.334,7.875,8.321c-0.07-0.026-0.144-0.045-0.219-0.062C7.628,8.253,7.601,8.243,7.573,8.238
		C7.469,8.22,7.361,8.209,7.25,8.209h-3c-0.829,0-1.5,0.537-1.5,1.199C2.75,10.071,3.421,10.608,4.25,10.608z"/>
	<path d="M22.891,17.59c-0.184-0.122-0.411-0.185-0.641-0.185c-0.145,0-0.289,0.025-0.424,0.075
		c-0.352,0.132-0.576,0.414-0.576,0.724v2.799H20l-3.81-4.062l-1.877,1.997l3.737,3.984c0.02,0.022,0.045,0.038,0.067,0.058
		c0.035,0.032,0.069,0.064,0.108,0.093c0.036,0.027,0.073,0.05,0.112,0.074c0.039,0.024,0.077,0.047,0.118,0.068
		c0.041,0.021,0.084,0.038,0.127,0.055c0.044,0.018,0.088,0.035,0.134,0.049c0.045,0.014,0.09,0.024,0.136,0.034
		c0.048,0.011,0.095,0.021,0.144,0.028c0.051,0.007,0.101,0.009,0.152,0.012c0.034,0.002,0.067,0.008,0.102,0.008h2v2.799
		c0,0.31,0.225,0.593,0.576,0.724c0.351,0.13,0.766,0.088,1.064-0.11l6-3.998c0.228-0.152,0.359-0.377,0.359-0.614
		c0-0.237-0.132-0.462-0.359-0.614L22.891,17.59z"/>
</g>
</svg>
