<?xml version="1.0" encoding="utf-8"?>
<!-- Generator: Adobe Illustrator 24.0.1, SVG Export Plug-In . SVG Version: 6.00 Build 0)  -->
<svg version="1.2" baseProfile="tiny" id="icon" xmlns="http://www.w3.org/2000/svg" xmlns:xlink="http://www.w3.org/1999/xlink"
	 x="0px" y="0px" viewBox="0 0 32 32" xml:space="preserve">
<g>
	<path d="M28.531,14.853l-7.778-7.875C20.449,6.67,20.044,6.5,19.613,6.5c-0.001,0-0.001,0-0.001,0c-0.432,0-0.837,0.17-1.142,0.478
		c-0.625,0.632-0.625,1.662,0,2.294L25.115,16l-6.645,6.729c-0.624,0.633-0.624,1.66,0,2.293c0.305,0.309,0.71,0.479,1.142,0.479
		c0.433,0,0.838-0.17,1.141-0.479l7.778-7.875C29.156,16.515,29.156,15.485,28.531,14.853z"/>
	<path d="M7.751,6.979C7.447,6.67,7.042,6.5,6.611,6.5c0,0,0,0,0,0c-0.432,0-0.837,0.17-1.141,0.478
		c-0.625,0.632-0.625,1.662,0,2.294L12.114,16l-6.646,6.729c-0.624,0.632-0.624,1.661-0.001,2.292C5.772,25.33,6.178,25.5,6.61,25.5
		s0.838-0.17,1.141-0.479l7.777-7.874c0.625-0.633,0.625-1.662,0-2.294L7.751,6.979z"/>
</g>
</svg>
