<?xml version="1.0" encoding="utf-8"?>
<!-- Generator: Adobe Illustrator 24.0.1, SVG Export Plug-In . SVG Version: 6.00 Build 0)  -->
<svg version="1.2" baseProfile="tiny" id="icon" xmlns="http://www.w3.org/2000/svg" xmlns:xlink="http://www.w3.org/1999/xlink"
	 x="0px" y="0px" viewBox="0 0 32 32" xml:space="preserve">
<g>
	<path d="M3.469,14.853l7.778-7.875C11.551,6.67,11.956,6.5,12.387,6.5c0.001,0,0.001,0,0.001,0c0.432,0,0.837,0.17,1.142,0.478
		c0.625,0.632,0.625,1.662,0,2.294L6.885,16l6.645,6.729c0.624,0.633,0.624,1.66,0,2.293c-0.305,0.309-0.71,0.479-1.142,0.479
		c-0.433,0-0.838-0.17-1.141-0.479l-7.778-7.875C2.844,16.515,2.844,15.485,3.469,14.853z"/>
	<path d="M24.249,6.979C24.553,6.67,24.958,6.5,25.389,6.5c0,0,0,0,0,0c0.432,0,0.837,0.17,1.141,0.478
		c0.625,0.632,0.625,1.662,0,2.294L19.886,16l6.646,6.729c0.624,0.632,0.624,1.661,0.001,2.292c-0.304,0.31-0.71,0.479-1.143,0.479
		s-0.838-0.17-1.141-0.479l-7.777-7.874c-0.625-0.633-0.625-1.662,0-2.294L24.249,6.979z"/>
</g>
</svg>
