<?xml version="1.0" encoding="utf-8"?>
<!-- Generator: Adobe Illustrator 24.0.1, SVG Export Plug-In . SVG Version: 6.00 Build 0)  -->
<svg version="1.2" baseProfile="tiny" id="icon" xmlns="http://www.w3.org/2000/svg" xmlns:xlink="http://www.w3.org/1999/xlink"
	 x="0px" y="0px" viewBox="0 0 32 32" xml:space="preserve">
<path d="M16.765,4.152c-0.746-0.311-1.608-0.139-2.179,0.434l-6.43,6.43C8.104,11.012,8.053,11,8,11H4c-1.1,0-2,0.9-2,2v6
	c0,1.1,0.9,2,2,2h4c0.053,0,0.104-0.012,0.156-0.016l6.43,6.43C14.968,27.797,15.48,28,16,28c0.257,0,0.518-0.05,0.765-0.152
	C17.513,27.538,18,26.809,18,26V6C18,5.191,17.513,4.462,16.765,4.152z"/>
</svg>
